<?xml version="1.0" encoding="UTF-8" standalone="no"?>
<svg width="800px" height="400px" viewBox="0 0 800 400" version="1.1" xmlns="http://www.w3.org/2000/svg" xmlns:xlink="http://www.w3.org/1999/xlink">
    <defs>
        <linearGradient id="bgGradient" x1="0%" y1="0%" x2="100%" y2="100%">
            <stop offset="0%" style="stop-color:#3B82F6;stop-opacity:0.1"/>
            <stop offset="100%" style="stop-color:#10B981;stop-opacity:0.1"/>
        </linearGradient>
    </defs>
    <g stroke="none" stroke-width="1" fill="none" fill-rule="evenodd">
        <rect fill="url(#bgGradient)" x="0" y="0" width="800" height="400"></rect>
        
        <!-- Background Grid -->
        <path d="M0,50 L800,50 M0,100 L800,100 M0,150 L800,150 M0,200 L800,200 M0,250 L800,250 M0,300 L800,300 M0,350 L800,350" 
              stroke="#3B82F6" stroke-width="0.5" stroke-opacity="0.1"></path>
        <path d="M50,0 L50,400 M100,0 L100,400 M150,0 L150,400 M200,0 L200,400 M250,0 L250,400 M300,0 L300,400 M350,0 L350,400 M400,0 L400,400 M450,0 L450,400 M500,0 L500,400 M550,0 L550,400 M600,0 L600,400 M650,0 L650,400 M700,0 L700,400 M750,0 L750,400" 
              stroke="#3B82F6" stroke-width="0.5" stroke-opacity="0.1"></path>
        
        <!-- Main Chart -->
        <g transform="translate(50, 50)">
            <!-- Chart Title -->
            <text font-family="Arial" font-size="24" font-weight="bold" fill="#1F2937" x="350" y="30" text-anchor="middle">Mutual Funds Analysis</text>
            
            <!-- X and Y Axis -->
            <line x1="50" y1="250" x2="700" y2="250" stroke="#64748B" stroke-width="2"></line>
            <line x1="50" y1="50" x2="50" y2="250" stroke="#64748B" stroke-width="2"></line>
            
            <!-- X Axis Labels -->
            <text font-family="Arial" font-size="12" fill="#64748B" x="50" y="270" text-anchor="middle">Jan</text>
            <text font-family="Arial" font-size="12" fill="#64748B" x="160" y="270" text-anchor="middle">Mar</text>
            <text font-family="Arial" font-size="12" fill="#64748B" x="270" y="270" text-anchor="middle">May</text>
            <text font-family="Arial" font-size="12" fill="#64748B" x="380" y="270" text-anchor="middle">Jul</text>
            <text font-family="Arial" font-size="12" fill="#64748B" x="490" y="270" text-anchor="middle">Sep</text>
            <text font-family="Arial" font-size="12" fill="#64748B" x="600" y="270" text-anchor="middle">Nov</text>
            
            <!-- Y Axis Labels -->
            <text font-family="Arial" font-size="12" fill="#64748B" x="35" y="250" text-anchor="end">0%</text>
            <text font-family="Arial" font-size="12" fill="#64748B" x="35" y="200" text-anchor="end">5%</text>
            <text font-family="Arial" font-size="12" fill="#64748B" x="35" y="150" text-anchor="end">10%</text>
            <text font-family="Arial" font-size="12" fill="#64748B" x="35" y="100" text-anchor="end">15%</text>
            <text font-family="Arial" font-size="12" fill="#64748B" x="35" y="50" text-anchor="end">20%</text>
            
            <!-- Grid Lines -->
            <line x1="50" y1="200" x2="700" y2="200" stroke="#E5E7EB" stroke-width="1"></line>
            <line x1="50" y1="150" x2="700" y2="150" stroke="#E5E7EB" stroke-width="1"></line>
            <line x1="50" y1="100" x2="700" y2="100" stroke="#E5E7EB" stroke-width="1"></line>
            <line x1="50" y1="50" x2="700" y2="50" stroke="#E5E7EB" stroke-width="1"></line>
            
            <!-- Chart Lines -->
            <path d="M50,220 C100,210 150,190 200,180 C250,170 300,150 350,140 C400,130 450,100 500,90 C550,80 600,70 650,60 C700,50" 
                  stroke="#3B82F6" stroke-width="3" fill="none"></path>
            
            <path d="M50,230 C100,225 150,215 200,210 C250,205 300,195 350,190 C400,185 450,170 500,165 C550,160 600,150 650,145 C700,140" 
                  stroke="#10B981" stroke-width="3" fill="none"></path>
            
            <path d="M50,240 C100,235 150,230 200,225 C250,220 300,215 350,210 C400,205 450,200 500,195 C550,190 600,185 650,180 C700,175" 
                  stroke="#F59E0B" stroke-width="3" fill="none"></path>
            
            <!-- Legend -->
            <rect x="500" y="300" width="15" height="15" fill="#3B82F6"></rect>
            <text font-family="Arial" font-size="14" fill="#1F2937" x="525" y="313">Large Cap Funds</text>
            
            <rect x="500" y="325" width="15" height="15" fill="#10B981"></rect>
            <text font-family="Arial" font-size="14" fill="#1F2937" x="525" y="338">Mid Cap Funds</text>
            
            <rect x="500" y="350" width="15" height="15" fill="#F59E0B"></rect>
            <text font-family="Arial" font-size="14" fill="#1F2937" x="525" y="363">Small Cap Funds</text>
            
            <!-- Decorative Elements -->
            <circle cx="200" cy="180" r="5" fill="#3B82F6"></circle>
            <circle cx="350" cy="140" r="5" fill="#3B82F6"></circle>
            <circle cx="500" cy="90" r="5" fill="#3B82F6"></circle>
            <circle cx="650" cy="60" r="5" fill="#3B82F6"></circle>
            
            <circle cx="200" cy="210" r="5" fill="#10B981"></circle>
            <circle cx="350" cy="190" r="5" fill="#10B981"></circle>
            <circle cx="500" cy="165" r="5" fill="#10B981"></circle>
            <circle cx="650" cy="145" r="5" fill="#10B981"></circle>
            
            <circle cx="200" cy="225" r="5" fill="#F59E0B"></circle>
            <circle cx="350" cy="210" r="5" fill="#F59E0B"></circle>
            <circle cx="500" cy="195" r="5" fill="#F59E0B"></circle>
            <circle cx="650" cy="180" r="5" fill="#F59E0B"></circle>
        </g>
    </g>
</svg>
