<?xml version="1.0" encoding="UTF-8" standalone="no"?>
<svg width="800px" height="400px" viewBox="0 0 800 400" version="1.1" xmlns="http://www.w3.org/2000/svg" xmlns:xlink="http://www.w3.org/1999/xlink">
    <g stroke="none" stroke-width="1" fill="none" fill-rule="evenodd">
        <rect fill="#F5F7FA" x="0" y="0" width="800" height="400"></rect>
        <g transform="translate(50.000000, 50.000000)">
            <!-- Data Collection -->
            <rect stroke="#3B82F6" stroke-width="2" fill="#EFF6FF" x="0" y="0" width="150" height="100" rx="8"></rect>
            <text font-family="Arial" font-size="16" font-weight="bold" fill="#3B82F6" x="75" y="40" text-anchor="middle">Data Collection</text>
            <text font-family="Arial" font-size="12" fill="#64748B" x="75" y="70" text-anchor="middle">1000+ Mutual Funds</text>
            
            <!-- Arrow 1 -->
            <path d="M160,50 L190,50" stroke="#3B82F6" stroke-width="2" stroke-linecap="round"></path>
            <polygon fill="#3B82F6" points="190,50 180,45 180,55"></polygon>
            
            <!-- Data Processing -->
            <rect stroke="#3B82F6" stroke-width="2" fill="#EFF6FF" x="200" y="0" width="150" height="100" rx="8"></rect>
            <text font-family="Arial" font-size="16" font-weight="bold" fill="#3B82F6" x="275" y="40" text-anchor="middle">Data Processing</text>
            <text font-family="Arial" font-size="12" fill="#64748B" x="275" y="70" text-anchor="middle">Cleaning & Normalization</text>
            
            <!-- Arrow 2 -->
            <path d="M360,50 L390,50" stroke="#3B82F6" stroke-width="2" stroke-linecap="round"></path>
            <polygon fill="#3B82F6" points="390,50 380,45 380,55"></polygon>
            
            <!-- Model Training -->
            <rect stroke="#3B82F6" stroke-width="2" fill="#EFF6FF" x="400" y="0" width="150" height="100" rx="8"></rect>
            <text font-family="Arial" font-size="16" font-weight="bold" fill="#3B82F6" x="475" y="40" text-anchor="middle">Model Training</text>
            <text font-family="Arial" font-size="12" fill="#64748B" x="475" y="70" text-anchor="middle">Machine Learning</text>
            
            <!-- Arrow 3 -->
            <path d="M560,50 L590,50" stroke="#3B82F6" stroke-width="2" stroke-linecap="round"></path>
            <polygon fill="#3B82F6" points="590,50 580,45 580,55"></polygon>
            
            <!-- Prediction -->
            <rect stroke="#10B981" stroke-width="2" fill="#ECFDF5" x="600" y="0" width="150" height="100" rx="8"></rect>
            <text font-family="Arial" font-size="16" font-weight="bold" fill="#10B981" x="675" y="40" text-anchor="middle">Prediction</text>
            <text font-family="Arial" font-size="12" fill="#64748B" x="675" y="70" text-anchor="middle">1, 3, 5 Year Returns</text>
            
            <!-- Data Visualization -->
            <rect stroke="#F59E0B" stroke-width="2" fill="#FFFBEB" x="200" y="150" width="350" height="150" rx="8"></rect>
            <text font-family="Arial" font-size="16" font-weight="bold" fill="#F59E0B" x="375" y="180" text-anchor="middle">Data Visualization</text>
            
            <!-- Charts -->
            <circle cx="250" cy="230" r="30" stroke="#F59E0B" stroke-width="2" fill="#FFFBEB"></circle>
            <path d="M250,230 L250,210 L270,230 Z" stroke="#F59E0B" stroke-width="2" fill="#F59E0B"></path>
            
            <rect x="300" y="200" width="60" height="60" stroke="#F59E0B" stroke-width="2" fill="#FFFBEB"></rect>
            <rect x="310" y="220" width="10" height="30" fill="#F59E0B"></rect>
            <rect x="325" y="210" width="10" height="40" fill="#F59E0B"></rect>
            <rect x="340" y="230" width="10" height="20" fill="#F59E0B"></rect>
            
            <line x1="400" y1="200" x2="400" y2="260" stroke="#F59E0B" stroke-width="2"></line>
            <line x1="400" y1="260" x2="500" y2="260" stroke="#F59E0B" stroke-width="2"></line>
            <path d="M400,240 C420,220 440,260 460,230 S480,210 500,240" stroke="#F59E0B" stroke-width="2" fill="none"></path>
            
            <!-- Arrows to Visualization -->
            <path d="M75,110 L75,225 L190,225" stroke="#3B82F6" stroke-width="2" stroke-linecap="round" stroke-dasharray="5,5"></path>
            <path d="M275,110 L275,140" stroke="#3B82F6" stroke-width="2" stroke-linecap="round" stroke-dasharray="5,5"></path>
            <path d="M475,110 L475,225 L560,225" stroke="#3B82F6" stroke-width="2" stroke-linecap="round" stroke-dasharray="5,5"></path>
            <path d="M675,110 L675,225 L560,225" stroke="#10B981" stroke-width="2" stroke-linecap="round" stroke-dasharray="5,5"></path>
        </g>
    </g>
</svg>
